name analog
datacolumns 19
datarows 47
range 0.3705 0.3935
endheader
time	ground_force_vx	ground_force_vy	ground_force_vz	ground_force_px	ground_force_py	ground_force_pz	l_ground_force_vx	l_ground_force_vy	l_ground_force_vz	l_ground_force_px	l_ground_force_py	l_ground_force_pz	ground_torque_x	ground_torque_y	ground_torque_z	l_ground_torque_x	l_ground_torque_y	l_ground_torque_z
0.3705	-0.0	-0.0	-0.0	-0.0	-0.0	-0.0	-6.0192952156066895	3.73292875289917	-674.2117919921875	-0.0	-0.0	-0.0	-0.0	-0.0	-0.0	187649.203125	-8230.431640625	-4105.689453125
0.371	-0.0	-0.0	-0.0	-0.0	-0.0	-0.0	-5.1945905685424805	3.493694305419922	-672.3112182617188	-0.0	-0.0	-0.0	-0.0	-0.0	-0.0	187020.5	-8467.4716796875	-3677.7978515625
0.3715	-0.0	-0.0	-0.0	-0.0	-0.0	-0.0	-4.826378345489502	2.6758923530578613	-668.2762451171875	-0.0	-0.0	-0.0	-0.0	-0.0	-0.0	186033.546875	-8473.9375	-3464.632080078125
0.372	-0.0	-0.0	-0.0	-0.0	-0.0	-0.0	-4.156157493591309	2.711589813232422	-664.5398559570312	-0.0	-0.0	-0.0	-0.0	-0.0	-0.0	185002.25	-8818.9658203125	-3197.12255859375
0.3725	-0.0	-0.0	-0.0	-0.0	-0.0	-0.0	-4.675018310546875	2.2478466033935547	-661.8521118164062	-0.0	-0.0	-0.0	-0.0	-0.0	-0.0	183874.09375	-8985.0107421875	-3087.814453125
0.373	-0.0	-0.0	-0.0	-0.0	-0.0	-0.0	-4.741843700408936	1.758103609085083	-658.7634887695312	-0.0	-0.0	-0.0	-0.0	-0.0	-0.0	183410.703125	-9376.091796875	-2923.43505859375
0.3735	-0.0	-0.0	-0.0	-0.0	-0.0	-0.0	-4.126598358154297	2.058203220367432	-658.1724853515625	-0.0	-0.0	-0.0	-0.0	-0.0	-0.0	183139.84375	-9578.3896484375	-2701.839599609375
0.374	-0.0	-0.0	-0.0	-0.0	-0.0	-0.0	-3.3845484256744385	2.6496505737304688	-656.3517456054688	-0.0	-0.0	-0.0	-0.0	-0.0	-0.0	182578.0	-10375.095703125	-2484.45947265625
0.3745	-0.0	-0.0	-0.0	-0.0	-0.0	-0.0	-1.8901301622390747	3.82491683959961	-654.2566528320312	-0.0	-0.0	-0.0	-0.0	-0.0	-0.0	182161.453125	-10476.4267578125	-2058.662109375
0.375	-0.0	-0.0	-0.0	-0.0	-0.0	-0.0	-1.41937255859375	4.769371032714844	-653.7994384765625	-0.0	-0.0	-0.0	-0.0	-0.0	-0.0	182047.96875	-11188.86328125	-1775.06640625
0.3755	-0.0	-0.0	-0.0	-0.0	-0.0	-0.0	-0.9283572435379028	5.305485725402832	-653.9067993164062	-0.0	-0.0	-0.0	-0.0	-0.0	-0.0	181795.140625	-11712.2373046875	-1710.63134765625
0.376	-0.0	-0.0	-0.0	-0.0	-0.0	-0.0	-1.105968952178955	5.4955034255981445	-654.3645629882812	-0.0	-0.0	-0.0	-0.0	-0.0	-0.0	182251.453125	-12330.9208984375	-1592.010986328125
0.3765	-0.0	-0.0	-0.0	-0.0	-0.0	-0.0	-0.2939132452011108	6.113370418548584	-655.2817993164062	-0.0	-0.0	-0.0	-0.0	-0.0	-0.0	182502.375	-13153.0341796875	-1456.8392333984375
0.377	-0.0	-0.0	-0.0	-0.0	-0.0	-0.0	0.6399168968200684	6.610233783721924	-657.6721801757812	-0.0	-0.0	-0.0	-0.0	-0.0	-0.0	182705.671875	-13945.8388671875	-1045.4393310546875
0.3775	-0.0	-0.0	-0.0	-0.0	-0.0	-0.0	1.7321418523788452	7.232958316802978	-659.7310180664062	-0.0	-0.0	-0.0	-0.0	-0.0	-0.0	182749.140625	-14445.025390625	-544.9528198242188
0.378	-0.0	-0.0	-0.0	-0.0	-0.0	-0.0	2.4697999954223637	7.1259765625	-659.8016967773438	-0.0	-0.0	-0.0	-0.0	-0.0	-0.0	182654.625	-15255.568359375	-199.36622619628903
0.3785	-0.0	-0.0	-0.0	-0.0	-0.0	-0.0	3.0765469074249268	6.341355323791504	-656.9918823242188	-0.0	-0.0	-0.0	-0.0	-0.0	-0.0	181771.953125	-15853.4609375	147.38221740722656
0.379	-0.0	-0.0	-0.0	-0.0	-0.0	-0.0	2.895715475082397	5.769269943237305	-655.5946655273438	-0.0	-0.0	-0.0	-0.0	-0.0	-0.0	180572.109375	-16133.96484375	315.54150390625
0.3795	-0.0	-0.0	-0.0	-0.0	-0.0	-0.0	2.5554683208465576	4.914694786071777	-650.6384887695312	-0.0	-0.0	-0.0	-0.0	-0.0	-0.0	179272.09375	-16280.046875	552.3238525390625
0.38	-0.0	-0.0	-0.0	-0.0	-0.0	-0.0	2.320857048034668	3.5304276943206787	-647.9688110351562	-0.0	-0.0	-0.0	-0.0	-0.0	-0.0	178235.34375	-16809.716796875	516.4508056640625
0.3805	-0.0	-0.0	-0.0	-0.0	-0.0	-0.0	2.1579668521881104	2.7523627281188965	-646.6856689453125	-0.0	-0.0	-0.0	-0.0	-0.0	-0.0	177388.75	-17218.080078125	838.3245849609375
0.381	-0.0	-0.0	-0.0	-0.0	-0.0	-0.0	2.616165399551392	2.148628234863281	-647.212890625	-0.0	-0.0	-0.0	-0.0	-0.0	-0.0	176894.1875	-17559.341796875	1228.878173828125
0.3815	-0.0	-0.0	-0.0	-0.0	-0.0	-0.0	3.651723146438599	1.2352843284606934	-645.581298828125	-0.0	-0.0	-0.0	-0.0	-0.0	-0.0	176601.453125	-18065.134765625	1432.0701904296875
0.382	-0.0	-0.0	-0.0	-0.0	-0.0	-0.0	4.524250030517578	1.1043999195098877	-645.4659423828125	-0.0	-0.0	-0.0	-0.0	-0.0	-0.0	176190.21875	-18530.802734375	1872.5870361328125
0.3825	-0.0	-0.0	-0.0	-0.0	-0.0	-0.0	4.834906101226807	0.8832168579101562	-647.8515014648438	-0.0	-0.0	-0.0	-0.0	-0.0	-0.0	176281.59375	-18958.986328125	2080.1455078125
0.383	-0.0	-0.0	-0.0	-0.0	-0.0	-0.0	5.1304192543029785	0.3239304721355438	-647.5596923828125	-0.0	-0.0	-0.0	-0.0	-0.0	-0.0	175960.203125	-19456.439453125	2154.39501953125
0.3835	-0.0	-0.0	-0.0	-0.0	-0.0	-0.0	5.381617546081543	-0.0296097695827484	-647.1515502929688	-0.0	-0.0	-0.0	-0.0	-0.0	-0.0	175429.109375	-19975.662109375	2342.306884765625
0.384	-0.0	-0.0	-0.0	-0.0	-0.0	-0.0	5.766201019287109	-1.1918777227401731	-644.6515502929688	-0.0	-0.0	-0.0	-0.0	-0.0	-0.0	174490.6875	-20430.021484375	2584.5693359375
0.3845	-0.0	-0.0	-0.0	-0.0	-0.0	-0.0	6.075989723205566	-2.17813777923584	-645.0603637695312	-0.0	-0.0	-0.0	-0.0	-0.0	-0.0	174148.453125	-20819.845703125	2732.85986328125
0.385	-0.0	-0.0	-0.0	-0.0	-0.0	-0.0	6.179591178894043	-2.766231060028076	-644.013671875	-0.0	-0.0	-0.0	-0.0	-0.0	-0.0	173367.984375	-21367.47265625	2846.397216796875
0.3855	-0.0	-0.0	-0.0	-0.0	-0.0	-0.0	6.977860450744629	-3.4725496768951416	-644.4061889648438	-0.0	-0.0	-0.0	-0.0	-0.0	-0.0	172932.578125	-21808.47265625	3178.133056640625
0.386	-0.0	-0.0	-0.0	-0.0	-0.0	-0.0	8.087904930114746	-3.432005882263184	-641.40185546875	-0.0	-0.0	-0.0	-0.0	-0.0	-0.0	172203.84375	-22173.40234375	3505.2373046875
0.3865	-0.0	-0.0	-0.0	-0.0	-0.0	-0.0	9.758186340332031	-4.2364020347595215	-637.3822631835938	-0.0	-0.0	-0.0	-0.0	-0.0	-0.0	171198.484375	-22587.466796875	3882.6455078125
0.387	-0.0	-0.0	-0.0	-0.0	-0.0	-0.0	10.807344436645508	-4.696352958679199	-635.1068115234375	-0.0	-0.0	-0.0	-0.0	-0.0	-0.0	169913.328125	-22897.01953125	4449.78369140625
0.3875	-0.0	-0.0	-0.0	-0.0	-0.0	-0.0	11.416718482971191	-5.652587890625	-632.3590087890625	-0.0	-0.0	-0.0	-0.0	-0.0	-0.0	168500.375	-23038.453125	4723.26611328125
0.388	-0.0	-0.0	-0.0	-0.0	-0.0	-0.0	11.902750015258787	-6.884791374206543	-625.9237670898438	-0.0	-0.0	-0.0	-0.0	-0.0	-0.0	166761.5625	-23321.48828125	5025.1240234375
0.3885	-0.0	-0.0	-0.0	-0.0	-0.0	-0.0	12.033502578735352	-7.725766658782959	-622.537353515625	-0.0	-0.0	-0.0	-0.0	-0.0	-0.0	165528.328125	-22989.353515625	5070.32470703125
0.389	-0.0	-0.0	-0.0	-0.0	-0.0	-0.0	11.709823608398438	-8.743846893310547	-619.6209716796875	-0.0	-0.0	-0.0	-0.0	-0.0	-0.0	164413.734375	-23162.068359375	5014.09765625
0.3895	-0.0	-0.0	-0.0	-0.0	-0.0	-0.0	11.636821746826172	-9.61142349243164	-616.3143920898438	-0.0	-0.0	-0.0	-0.0	-0.0	-0.0	163593.421875	-23409.9375	5092.29150390625
0.39	-0.0	-0.0	-0.0	-0.0	-0.0	-0.0	11.918818473815918	-9.81344223022461	-616.6402587890625	-0.0	-0.0	-0.0	-0.0	-0.0	-0.0	163123.8125	-23585.591796875	5043.591796875
0.3905	-0.0	-0.0	-0.0	-0.0	-0.0	-0.0	13.024627685546877	-10.005521774291992	-615.3923950195312	-0.0	-0.0	-0.0	-0.0	-0.0	-0.0	163008.828125	-23890.23828125	5238.197265625
0.391	-0.0	-0.0	-0.0	-0.0	-0.0	-0.0	13.613656997680664	-9.828570365905762	-617.3627319335938	-0.0	-0.0	-0.0	-0.0	-0.0	-0.0	163372.875	-24152.1953125	5378.68359375
0.3915	-0.0	-0.0	-0.0	-0.0	-0.0	-0.0	14.209723472595217	-9.635746002197266	-619.1774291992188	-0.0	-0.0	-0.0	-0.0	-0.0	-0.0	163801.765625	-24351.421875	5373.93359375
0.392	-0.0	-0.0	-0.0	-0.0	-0.0	-0.0	13.217906951904297	-9.129130363464355	-619.5517578125	-0.0	-0.0	-0.0	-0.0	-0.0	-0.0	164169.984375	-24226.119140625	5022.8798828125
0.3925	-0.0	-0.0	-0.0	-0.0	-0.0	-0.0	11.419565200805664	-8.181766510009766	-622.8229370117188	-0.0	-0.0	-0.0	-0.0	-0.0	-0.0	164875.90625	-24737.369140625	4377.45556640625
0.393	-0.0	-0.0	-0.0	-0.0	-0.0	-0.0	11.209991455078123	-7.820744037628174	-623.2694091796875	-0.0	-0.0	-0.0	-0.0	-0.0	-0.0	165414.59375	-24669.359375	4118.4423828125
0.3935	-0.0	-0.0	-0.0	-0.0	-0.0	-0.0	11.17755889892578	-7.563248634338379	-624.4752807617188	-0.0	-0.0	-0.0	-0.0	-0.0	-0.0	165761.09375	-24650.453125	3910.7939453125
